<?xml version="1.0" encoding="UTF-8"?>
<svg width="257px" height="291px" viewBox="0 0 257 291" version="1.1" xmlns="http://www.w3.org/2000/svg" xmlns:xlink="http://www.w3.org/1999/xlink">
    <!-- Generator: Sketch 53.2 (72643) - https://sketchapp.com -->
    <title>Untitled</title>
    <desc>Created with Sketch.</desc>
    <g id="Page-1" stroke="none" stroke-width="1" fill="none" fill-rule="evenodd">
        <g id="louisville_city">
            <g id="Group" transform="translate(128.520000, 145.420000) scale(-1, 1) rotate(-180.000000) translate(-128.520000, -145.420000) translate(0.520000, 0.420000)">
                <g transform="translate(0.580000, 0.580000)">
                    <path d="M225.55,176.6 C229.941875,202.1725 229.393125,219.57125 228.939375,225.97375 C228.926875,226.1375 228.919375,226.25375 228.915625,226.3225 L228.85,229.4 L225.99625,230.581875 L225.855,230.63375 C225.525,230.74125 225.1975,230.869375 224.870625,230.99625 C224.474375,231.14875 224.07875,231.300625 223.68125,231.43 C221.555,232.313125 183.7075,247.6775 129.17375,247.6775 C107.43375,247.6775 85.69625,245.254375 64.55375,240.471875 C51.4525,237.443125 46.45125,235.7825 37.37375,232.7675 C35.38625,232.1075 33.205625,231.383125 30.70125,230.56625 L27.82875,229.62875 L27.501875,226.4775 L27.503125,226.419375 C27.498125,226.35 27.48875,226.24625 27.475625,226.1075 C26.83875,218.900625 26.39125,203.03875 30.36,176.8325 L0.73125,174.1775 L0.73125,118.16 L14.59125,119.01 C23.153125,118.213125 43.97375,114.454375 56.09625,96.8425 C65.514375,79.91875 73.70875,66.505 81.82875,54.7225 C81.31,51.488125 81.39,44.34375 91.27875,41.675 C100.183125,29.993125 109.88125,18.85 124.58375,3.39375 L128.17375,0.05875 L131.676875,3.308125 L131.76375,3.39375 C145.98,18.33875 155.9975,29.88125 165.14125,41.86375 C168.39625,42.821875 175.703125,45.961875 174.37875,54.56 C182.90875,66.86125 191.27125,80.5575 200.64375,97.57625 C212.493125,114.34625 232.82875,117.9825 241.17625,118.76875 L254.87625,118.203125 L254.87625,174.191875 L225.55,176.600625 L225.55,176.6 Z" id="Path" fill="#E8CE79" fill-rule="nonzero"></path>
                    <path d="M250.65,122.975 C250.325625,123.009375 250.00125,123.041875 249.678125,123.07625 C243.71875,123.58625 211.760625,124.926875 194.760625,97.23125 C188.06,83.59875 179.876875,69.50125 169.888125,55.26125 C170.461875,53.595 172.17125,46.740625 162.38625,45.005625 C152.60375,32.148125 141.3025,19.239375 128.23375,6.510625 L128.2325,6.510625 C115.22375,19.288125 103.96125,32.180625 94.2025,44.975625 C84.28125,46.64875 85.91375,53.670625 86.508125,55.470625 C76.515,69.679375 68.326875,83.691875 61.620625,97.209375 C44.355625,125.054375 11.795625,123.574375 5.975625,123.069375 C5.674375,123.036875 5.373125,123.0075 5.070625,122.975 L5.070625,122.98875 C5.02625,122.98625 4.98375,122.98 4.94,122.975 L4.94,170.22875 C15.31375,171.20875 25.69625,172.055625 36.08625,172.786875 C30,205.195625 32.184375,226.234375 32.184375,226.234375 C43.720625,230.39125 55.190625,233.6 66.349375,236.05375 C66.368125,236.0575 66.385625,236.06125 66.403125,236.06625 C67.32,236.266875 68.231875,236.463125 69.14375,236.65375 C89.24875,240.94125 108.1975,242.77875 125.48625,243.04875 C126.575625,243.0725 127.655,243.09125 128.720625,243.103125 L128.720625,243.084375 C186.035625,243.3475 224.280625,226.644375 224.280625,226.644375 C224.280625,226.644375 226.249375,205.314375 220.096875,172.755625 C230.2875,172.033125 240.474375,171.193125 250.649375,170.23 L250.649375,122.97625 L250.65,122.975 Z" id="Path" fill="#FFFFFF" fill-rule="nonzero"></path>
                    <path d="M247.325,126.3 L247.325,167.5625 C231.10125,169.09625 214.85625,170.311875 198.59625,171.21875 C204.371875,171.55125 215.015,172.9175 216.30625,178.450625 L216.328125,178.433125 C220.56125,205.020625 219.1475,221.953125 219.1475,221.953125 C219.1475,221.953125 132.02,255.305625 37.4725,221.646875 C37.4725,221.646875 35.833125,204.209375 40.31625,176.793125 C41.95875,174.36875 45.713125,172.976875 49.578125,172.179375 L49.578125,176.73375 C50.046875,178.849375 52.78875,182.491875 66.096875,182.636875 L49.578125,182.4575 C49.578125,182.4575 82.821875,192.158125 93.399375,214.4675 L93.399375,185.075 L93.399375,172.7225 C65.033125,171.9525 36.685625,170.23625 8.406875,167.561875 L8.406875,126.299375 C23.028125,127.70375 37.666875,128.946875 52.319375,129.9575 C52.850625,128.44625 53.39375,126.9275 53.956875,125.39625 C53.06375,125.501875 52.169375,125.595625 51.275,125.705 C50.194375,125.833125 49.318125,124.871875 49.319375,123.555 C49.319375,122.240625 50.19375,120.99875 51.2725,120.799375 C52.845625,120.5275 54.418125,120.278125 55.990625,120.039375 C64.008125,99.544375 75.375625,77.284375 91.475625,54.566875 C90.889375,54.495625 90.21125,53.76125 90.083125,52.6575 C89.915,51.345 90.530625,49.96875 91.185,49.6625 C92.919375,49.005625 94.654375,48.399375 96.386875,47.83375 C105.5575,35.573125 116.124375,23.22125 128.324375,10.97875 C140.598125,23.22375 151.214375,35.63625 160.416875,47.9925 C161.98625,48.511875 163.555625,49.066875 165.126875,49.6625 C165.77875,49.97 166.395625,51.345 166.228125,52.6575 C166.120625,53.58 165.630625,54.2425 165.128125,54.48 C181.115625,77.11 192.428125,99.41 200.423125,120 C202.079375,120.249375 203.7375,120.5125 205.39375,120.799375 C206.47125,120.99875 207.345625,122.240625 207.3475,123.555 C207.3475,124.871875 206.47,125.833125 205.390625,125.705 C204.40875,125.585625 203.426875,125.47125 202.446875,125.355 C203.005,126.885 203.5425,128.401875 204.06875,129.91125 C218.50375,128.90875 232.9275,127.683125 247.33125,126.299375" id="Path" fill="#521E78" fill-rule="nonzero"></path>
                    <polygon id="Star-Copy" fill="#521E78" transform="translate(90.900000, 268.840000) rotate(-180.000000) translate(-90.900000, -268.840000) " points="90.9 276.913847 79.144295 285.02034 83.2213155 271.334956 71.8788697 262.65966 86.154312 262.308121 90.9 248.84 95.645688 262.308121 109.92113 262.65966 98.5786845 271.334956 102.655705 285.02034"></polygon>
                    <polygon id="Star-Copy-2" fill="#521E78" transform="translate(163.900000, 268.840000) rotate(-180.000000) translate(-163.900000, -268.840000) " points="163.9 276.913847 152.144295 285.02034 156.221315 271.334956 144.87887 262.65966 159.154312 262.308121 163.9 248.84 168.645688 262.308121 182.92113 262.65966 171.578685 271.334956 175.655705 285.02034"></polygon>
                    <path d="M113.265,136.68342 L113.265,138.02722 C108.7244,138.8891 105.1835,142.41522 104.4935,146.83582 L104.4935,148.63462 L104.4935,149.46665 L104.4935,149.99009 L104.4701,149.99009 L103.91151,149.99009 L102.55411,149.99009 L102.55411,159.73029 L102.55411,162.21469 L102.28458,162.21469 L98.35098,162.21469 L98.35098,197.40769 C109.60298,197.14644 120.85798,197.03816 132.11298,197.07566 L132.11298,162.21466 L128.86298,162.21466 L128.17939,162.21076 L128.17939,159.73026 L128.17939,149.99006 L126.35519,149.99006 L126.35519,146.83576 L126.34919,146.83576 C125.70044,142.66576 122.51399,139.29156 118.34329,138.19906 L118.34329,136.68346 L113.26519,136.68346 L113.265,136.68342 Z M136.988,138.29082 L136.988,197.10182 C145.258,197.1612 153.528,197.30307 161.795,197.5237 L161.795,138.2917 L161.6661,138.2917 L149.4551,138.2917 L136.9881,138.2917 L136.988,138.29082 Z M166.879,151.60182 L166.879,197.66782 C177.377,197.99032 187.874,198.4454 198.365,199.02912 L198.365,151.60112 L166.879,151.60112 L166.879,151.60182 Z M127.578,207.18182 C127.577,213.85372 127.57729,220.52582 127.576,227.19982 C130.7541,227.19482 133.9298,227.21022 137.1092,227.24082 C137.1092,225.35892 137.1102,223.47422 137.1092,221.59042 C135.5711,221.57662 134.0301,221.56662 132.492,221.55922 L132.49,221.55922 C132.49,216.76922 132.488,211.97612 132.488,207.18422 C130.8505,207.17922 129.2141,207.17852 127.5778,207.18222 L127.578,207.18182 Z M121.3339,207.2033 C119.6964,207.2158 118.0573,207.22877 116.4198,207.24627 C116.4188,213.92817 116.4168,220.61227 116.4138,227.29527 C118.0513,227.26897 119.6923,227.24967 121.3298,227.23277 C121.3298,220.55777 121.3308,213.88077 121.3338,207.20377 L121.3339,207.2033 Z M142.9119,207.26385 C142.9139,213.94945 142.9149,220.63585 142.9159,227.32085 C146.0915,227.37585 149.2702,227.44899 152.4452,227.5396 C152.4452,225.6477 152.4432,223.7544 152.4432,221.8619 C150.9044,221.8231 149.3661,221.7863 147.828,221.75448 C147.828,216.94698 147.825,212.14148 147.824,207.33448 C146.1865,207.30698 144.5494,207.28479 142.9119,207.26417 L142.9119,207.26385 Z M110.8889,207.31854 C109.152,207.34417 107.4155,207.37596 105.6799,207.41034 C105.34677,211.78034 105.01435,216.15254 104.68185,220.52734 C104.55435,220.53104 104.42779,220.53654 104.29904,220.53906 C103.93404,216.18096 103.56709,211.82216 103.20334,207.46106 C101.46584,207.49856 99.73064,207.54176 97.99434,207.58801 C98.95184,214.29361 99.90984,220.98901 100.86734,227.67801 C103.28234,227.59611 105.69574,227.52441 108.10954,227.46316 C109.03579,220.74006 109.96254,214.02616 110.8889,207.31816 L110.8889,207.31854 Z M88.0549,207.53338 C87.69062,207.52201 87.34123,207.52348 87.0061,207.53538 C85.1011,207.60413 83.6892,208.16312 82.7717,209.21308 C81.85545,210.26498 81.396,212.16388 81.3947,214.90448 C81.3947,217.05828 81.75056,218.58828 82.4631,219.49828 C83.17498,220.40828 84.5169,221.03778 86.4943,221.39278 C87.2418,221.52091 87.7018,221.62544 87.8693,221.70919 C88.03992,221.79299 88.12446,221.93762 88.12321,222.13887 C88.12321,222.60325 87.75602,222.85247 87.02161,222.88497 C85.63911,222.94997 83.86661,222.81097 81.70911,222.47286 C81.63786,224.27226 81.56622,226.07326 81.49622,227.87326 C81.77122,227.95016 82.04731,228.02685 82.32044,228.10373 C82.85732,228.25685 83.62354,228.39568 84.61734,228.52756 C85.61109,228.65943 86.56184,228.70342 87.46304,228.65842 C89.33994,228.56652 90.74604,227.96568 91.67784,226.85572 C92.61034,225.74762 93.07574,223.94762 93.07824,221.44952 C93.07824,220.24072 93.00441,219.28252 92.85754,218.57252 C92.70879,217.8619 92.40356,217.26942 91.94543,216.79132 C91.48731,216.31507 90.97371,215.95077 90.40243,215.69952 C89.83055,215.44827 89.09553,215.19897 88.19933,214.95147 C87.30308,214.70397 86.77043,214.52288 86.60163,214.4085 C86.43225,214.29412 86.34772,214.12452 86.34772,213.90264 C86.34772,213.68076 86.42225,213.5303 86.57038,213.45342 C86.71913,213.37654 87.24413,213.31983 88.14848,213.28545 C89.05036,213.24983 90.49638,213.34857 92.48638,213.58233 C92.52951,211.76733 92.57349,209.95073 92.61724,208.13503 C92.32099,208.07378 92.02349,208.01269 91.72662,207.95144 C90.37242,207.70675 89.14762,207.56757 88.05472,207.53347 L88.0549,207.53338 Z M158.2429,207.54901 C158.2449,214.27401 158.2459,221.00001 158.2469,227.72501 C161.7919,227.84939 165.3345,227.99704 168.8759,228.16642 C168.8759,226.29642 168.8752,224.42712 168.8739,222.55902 C166.9683,222.47522 165.0647,222.39785 163.1591,222.32659 L163.1591,220.51609 C164.6397,220.57046 166.1219,220.62797 167.6044,220.68797 C167.6034,218.84177 167.6024,216.99517 167.6024,215.14887 C166.1205,215.09262 164.6408,215.03871 163.1571,214.98871 L163.1551,214.98871 C163.1551,214.41496 163.1544,213.84171 163.1531,213.26801 C165.0606,213.32989 166.9662,213.39731 168.8719,213.46918 C168.8699,211.59918 168.8679,209.73188 168.8679,207.86368 C165.3248,207.74243 161.7848,207.63798 158.2429,207.54923 L158.2429,207.54901 Z M189.4909,208.38495 C187.528,208.44905 186.1663,209.12307 185.4089,210.40055 C184.54141,211.85865 184.1088,214.62125 184.1101,218.68375 C184.1121,221.52185 184.30018,223.70735 184.67455,225.24235 C185.0483,226.77615 185.65713,227.89185 186.50465,228.59005 C187.35152,229.2888 188.55815,229.69085 190.12375,229.79705 C191.68815,229.90455 193.21785,229.74735 194.71165,229.32049 C194.69165,227.50669 194.66785,225.69289 194.64715,223.88099 C193.54775,223.86719 192.44575,223.85579 191.34635,223.84579 C190.68385,223.80329 190.20385,223.6661 189.90885,223.43172 C189.61323,223.19797 189.39737,222.74774 189.26237,222.08212 C189.12925,221.41962 189.06315,220.23592 189.06315,218.53522 C189.06215,216.83272 189.2012,215.72092 189.48307,215.19342 C189.76495,214.6653 190.39565,214.42819 191.37567,214.48444 C192.3563,214.54132 193.42447,214.70811 194.58077,214.98249 C194.62137,213.14369 194.66327,211.30229 194.70577,209.46099 C194.45827,209.37599 194.21374,209.29075 193.96749,209.20513 C192.58439,208.71701 191.38599,208.44708 190.36789,208.39458 C190.06289,208.3788 189.77135,208.37566 189.49094,208.38478 L189.4909,208.38495 Z M75.4509,208.39862 C73.814,208.47362 72.1796,208.55307 70.5427,208.63495 L70.5349,229.20495 C72.1711,229.0987 73.8062,228.99378 75.4431,228.8944 C75.4456,222.0625 75.4472,215.2304 75.4509,208.3984 L75.4509,208.39862 Z M64.3869,208.95721 C62.7519,209.04784 61.1137,209.13963 59.4787,209.23651 C59.4774,213.76901 59.476,218.30031 59.4748,222.83251 C59.4748,223.43188 59.37542,223.86031 59.17792,224.12161 C58.98104,224.38473 58.6423,224.53317 58.16232,224.56693 C57.68232,224.60133 57.34201,224.50183 57.13892,224.2681 C56.93392,224.0356 56.83033,223.61934 56.83033,223.0181 C56.83283,218.4775 56.83493,213.9389 56.83623,209.3971 C55.20123,209.49772 53.56563,209.6021 51.93003,209.7096 C51.93003,214.1734 51.92733,218.6351 51.92613,223.0986 C51.92613,226.0255 52.42425,228.0298 53.42613,229.1123 L53.42813,229.1123 C54.42751,230.1967 56.00333,230.651 58.15273,230.4853 C60.30273,230.3228 61.87743,229.61592 62.87933,228.3603 C63.87993,227.1053 64.38073,225.0205 64.38323,222.1005 C64.38443,217.7205 64.38653,213.3379 64.38713,208.9575 L64.3869,208.95721 Z M200.6069,209.37518 C200.6069,216.30268 200.6109,223.23118 200.6109,230.15618 C202.2465,230.28306 203.8828,230.41103 205.5171,230.5429 C205.5151,223.591 205.5121,216.6389 205.5111,209.6859 C203.8773,209.58028 202.2405,209.47598 200.6068,209.37518 L200.6069,209.37518 Z M211.3039,210.0783 C211.3049,212.0477 211.3059,214.0178 211.3059,215.9865 C212.27903,216.05838 213.2507,216.1315 214.2219,216.20525 C214.2219,221.22525 214.2249,226.24325 214.2259,231.26225 C215.8584,231.40225 217.4919,231.54233 219.1263,231.68608 C219.1263,226.65548 219.12684,221.62108 219.1243,216.58808 C220.0418,216.65996 220.9554,216.73511 221.8704,216.81074 L221.8704,210.86934 C218.3504,210.59065 214.8277,210.3264 211.3044,210.07832 L211.3039,210.0783 Z M40.1839,210.1701 C39.90983,210.1639 39.62648,210.1731 39.33234,210.19549 C36.97924,210.37299 35.26824,211.37469 34.19754,213.19159 C33.12754,215.00849 32.59204,217.83619 32.59204,221.66619 C32.59014,225.49619 33.12977,228.23279 34.20724,229.87909 C35.28474,231.52349 36.99444,232.23839 39.34004,232.03339 C41.68564,231.82839 43.39314,230.82189 44.46504,229.01189 C45.53564,227.20189 46.07124,224.39339 46.07244,220.58029 C46.07244,216.76719 45.53697,214.03919 44.46694,212.39669 C43.52905,210.95949 42.10224,210.21369 40.18374,210.17009 L40.1839,210.1701 Z M226.8739,211.2775 C228.2195,216.2194 229.5646,221.1676 230.9071,226.1235 C230.9071,228.3297 230.9078,230.5383 230.9091,232.7446 C232.5416,232.89273 234.1732,233.0439 235.8075,233.19578 L235.8075,226.56878 C237.1856,221.85938 238.5661,217.14608 239.9442,212.43978 C238.2211,212.27603 236.4947,212.11689 234.7704,211.96126 C234.31415,213.99316 233.85681,216.02436 233.3993,218.05506 C232.95492,215.94256 232.51109,213.83176 232.0692,211.72306 C230.338,211.56937 228.607,211.42269 226.8739,211.27775 L226.8739,211.2775 Z M22.7139,211.9845 C21.0799,212.1315 19.4459,212.2845 17.8139,212.4375 L17.8139,233.5765 C20.9808,233.28275 24.1484,232.99017 27.3159,232.69954 L27.3159,226.74254 C25.7815,226.88067 24.2481,227.01864 22.7143,227.16051 L22.7143,211.98451 L22.7139,211.9845 Z" id="Shape" fill="#FFFFFF" fill-rule="nonzero" transform="translate(128.879050, 185.129960) scale(-1, 1) rotate(-180.000000) translate(-128.879050, -185.129960) "></path>
                    <path d="M113.095,29.12404 L112.89773,30.47754 C108.35713,31.33879 104.96403,35.03284 104.27473,39.45414 L104.27473,42.08304 C105.81723,42.46929 108.04233,42.60843 108.04233,42.60843 L104.51693,42.60843 L104.51293,42.60843 L102.33133,42.60843 L102.35863,52.37013 L102.35863,53.94823 C104.59243,54.47448 107.59693,54.82714 107.59693,54.82714 L102.57543,54.82714 L102.30785,54.83104 L98.19065,54.83104 L98.19065,90.30604 C103.83565,90.17479 109.66565,90.08112 115.30965,90.02674 L115.30965,42.60874 L110.40145,42.60874 L109.48543,83.05174 L108.57137,42.60874 L109.63977,42.60874 C108.94914,30.22174 118.52067,30.83174 118.52067,30.83174 L118.52067,29.12474 L113.09487,29.12474 L113.095,29.12404 Z M136.76094,30.73144 L136.761,36.31544 L149.474,36.31544 L149.474,36.81935 L136.761,36.81935 L136.761,89.98535 C140.9172,90.01473 145.3208,90.06582 149.476,90.13769 L149.476,36.81969 L152.8178,36.81969 L152.8178,90.18269 C153.04655,90.18769 153.2739,90.19259 153.5014,90.19636 L153.5014,36.81936 L157.7573,36.81936 L157.7573,90.29436 C157.9848,90.29936 158.21144,90.30436 158.43894,90.30999 L158.43894,36.81999 L161.81394,36.81999 L161.81394,36.31608 L149.47594,36.31608 L149.47594,30.73208 L136.76094,30.73208 L136.76094,30.73144 Z M182.636,43.94444 L166.702,44.05382 L166.702,89.24482 L166.702,90.40502 C172.392,90.5794 178.145,90.799 183.835,91.0515 C184.31875,91.07337 184.9203,91.07775 185.4053,91.09837 C186.5828,91.15212 187.8964,91.31032 189.0733,91.36595 L187.0538,89.24875 L187.0382,89.24875 L185.1691,87.34835 L185.0871,87.26632 L184.92694,87.1003 L182.63594,84.7741 L180.34884,87.1003 L178.61054,88.8698 L180.60074,86.3952 L182.68084,83.5417 L184.43084,85.5358 L184.43084,62.9458 L190.39374,62.9458 L190.39374,56.6372 L190.95819,56.6372 L190.95819,62.9458 L191.23749,62.9458 L191.23749,56.6372 L191.80194,56.6372 L191.80194,62.9458 L192.08514,62.9458 L192.08514,56.6372 L192.64764,56.6372 L192.64764,62.9458 L194.42504,62.9458 L194.42504,56.6372 L195.88014,56.6372 L195.88014,53.3638 L182.63614,53.3638 L182.63614,43.9439 L182.636,43.94444 Z M124.429,44.84678 L124.429,46.23738 L125.8724,46.23738 L125.8724,44.84678 L124.429,44.84678 L124.429,44.84678 Z M169.345,46.60268 L170.7805,46.60268 L170.7805,47.83118 L169.345,47.83118 L169.345,46.60268 Z M172.9837,46.60268 L174.4212,46.60268 L174.4212,47.83118 L172.9837,47.83118 L172.9837,46.60268 Z M176.431,46.60268 L177.8704,46.60268 L177.8704,47.83118 L176.431,47.83118 L176.431,46.60268 Z M180.0736,46.60268 L181.5092,46.60268 L181.5092,47.83118 L180.0736,47.83118 L180.0736,46.60268 Z M183.7123,46.60268 L183.7123,47.83118 L185.1498,47.83118 L185.1498,46.60268 L183.7123,46.60268 Z M187.1615,46.60268 L187.1615,47.83118 L188.601,47.83118 L188.601,46.60268 L187.1615,46.60268 Z M190.8002,46.60268 L190.8002,47.83118 L192.2396,47.83118 L192.2396,46.60268 L190.8002,46.60268 Z M194.4428,46.60268 L194.4428,47.83118 L195.8803,47.83118 L195.8803,46.60268 L194.4428,46.60268 Z M124.4288,48.36828 L124.4288,49.75888 L125.8722,49.75888 L125.8722,48.36828 L124.4288,48.36828 Z M93.4048,48.41128 C82.4098,70.54328 48.6138,80.55628 48.6138,80.55628 L57.1099,80.41956 C57.1162,80.42956 57.13779,80.43714 57.18217,80.43714 C57.83467,80.43714 58.15147,80.76776 57.38334,80.84339 L57.2349,80.84339 C51.408,81.89589 49.9226,84.01119 49.5845,85.53869 L49.5845,92.30819 C52.8245,92.10819 55.9265,91.93889 59.1665,91.76327 C62.8215,86.17767 67.2837,83.60707 67.2837,83.60707 C86.2417,73.12207 93.4047,48.41207 93.4047,48.41207 L93.4048,48.41128 Z M124.4108,51.88978 L124.4108,53.27648 L125.8542,53.27648 L125.8542,51.88978 L124.4108,51.88978 Z M124.4108,55.22378 L124.4108,56.61438 L125.8542,56.61438 L125.8542,55.22378 L124.4108,55.22378 Z M171.6918,56.63788 L179.1449,56.63788 L179.1449,62.94648 L171.6918,62.94648 L171.6918,56.63788 Z M128.4418,56.86444 L128.4418,57.6203 L131.2309,57.6203 L131.2309,56.86444 L128.4418,56.86444 Z M124.4106,58.74534 L124.4106,60.13594 L125.854,60.13594 L125.854,58.74534 L124.4106,58.74534 Z M128.4418,60.58714 L128.4418,61.343 L131.2309,61.343 L131.2309,60.58714 L128.4418,60.58714 Z M124.4106,62.26684 L124.4106,63.65554 L125.854,63.65554 L125.854,62.26684 L124.4106,62.26684 Z M128.4418,64.30984 L128.4418,65.06375 L131.2309,65.06375 L131.2309,64.30984 L128.4418,64.30984 Z M124.4106,65.60084 L124.4106,66.99144 L125.854,66.99144 L125.854,65.60084 L124.4106,65.60084 Z M128.4418,68.03244 L128.4418,68.78635 L131.2309,68.78635 L131.2309,68.03244 L128.4418,68.03244 Z M124.4106,69.12424 L124.4106,70.51294 L125.854,70.51294 L125.854,69.12424 L124.4106,69.12424 Z M128.4418,71.75314 L128.4418,72.509 L131.2309,72.509 L131.2309,71.75314 L128.4418,71.75314 Z M124.4106,72.64376 L124.4106,74.03246 L125.854,74.03246 L125.854,72.64376 L124.4106,72.64376 Z M128.4418,75.47576 L128.4418,76.23162 L131.2309,76.23162 L131.2309,75.47576 L128.4418,75.47576 Z M124.4106,76.16521 L124.4106,77.55391 L125.854,77.55391 L125.854,76.16521 L124.4106,76.16521 Z M78.7446,76.54216 L78.7446,77.93276 L80.1899,77.93276 L80.1899,76.54216 L78.7446,76.54216 Z M81.561,76.54216 L81.561,77.93276 L83.0063,77.93276 L83.0063,76.54216 L81.561,76.54216 Z M86.8481,76.54216 L86.8481,77.93276 L88.2954,77.93276 L88.2954,76.54216 L86.8481,76.54216 Z M89.6684,76.54216 L89.6684,77.93276 L91.1137,77.93276 L91.1137,76.54216 L89.6684,76.54216 Z M128.4414,78.99726 L128.4414,79.75312 L131.2305,79.75312 L131.2305,78.99726 L128.4414,78.99726 Z M81.5604,79.55976 L81.5604,80.95036 L83.0057,80.95036 L83.0057,79.55976 L81.5604,79.55976 Z M86.8475,79.55976 L86.8475,80.95036 L88.2948,80.95036 L88.2948,79.55976 L86.8475,79.55976 Z M89.6678,79.55976 L89.6678,80.95036 L91.1112,80.95036 L91.1112,79.55976 L89.6678,79.55976 Z M78.7438,79.56176 L78.7438,80.95046 L80.1891,80.95046 L80.1891,79.56176 L78.7438,79.56176 Z M124.4098,79.68676 L124.4098,81.07546 L125.8532,81.07546 L125.8532,79.68676 L124.4098,79.68676 Z M128.441,82.71996 L128.441,83.47387 L131.2301,83.47387 L131.2301,82.71996 L128.441,82.71996 Z M124.4098,83.20629 L124.4098,84.59689 L125.8532,84.59689 L125.8532,83.20629 L124.4098,83.20629 Z M70.7208,84.39969 L70.7208,85.78839 L72.1642,85.78839 L72.1642,84.39969 L70.7208,84.39969 Z M73.5392,84.39969 L73.5392,85.78839 L74.9826,85.78839 L74.9826,84.39969 L73.5392,84.39969 Z M78.7443,84.39969 L78.7443,85.78839 L80.1896,85.78839 L80.1896,84.39969 L78.7443,84.39969 Z M81.5607,84.39969 L81.5607,85.78839 L83.006,85.78839 L83.006,84.39969 L81.5607,84.39969 Z M86.8478,84.39969 L86.8478,85.78839 L88.2951,85.78839 L88.2951,84.39969 L86.8478,84.39969 Z M89.6681,84.39969 L89.6681,85.78839 L91.1115,85.78839 L91.1115,84.39969 L89.6681,84.39969 Z M128.4411,86.44269 L128.4411,87.1966 L131.2302,87.1966 L131.2302,86.44269 L128.4411,86.44269 Z M124.4099,86.84699 L124.4099,88.23759 L125.8533,88.23759 L125.8533,86.84699 L124.4099,86.84699 Z M70.7209,87.41535 L70.7209,88.80595 L72.1643,88.80595 L72.1643,87.41535 L70.7209,87.41535 Z M73.5393,87.41535 L73.5393,88.80595 L74.9827,88.80595 L74.9827,87.41535 L73.5393,87.41535 Z M78.7444,87.41535 L78.7444,88.80595 L80.1897,88.80595 L80.1897,87.41535 L78.7444,87.41535 Z M81.5608,87.41535 L81.5608,88.80595 L83.0061,88.80595 L83.0061,87.41535 L81.5608,87.41535 Z M86.8479,87.41535 L86.8479,88.80595 L88.2952,88.80595 L88.2952,87.41535 L86.8479,87.41535 Z M89.6682,87.41535 L89.6682,88.80595 L91.1116,88.80595 L91.1116,87.41535 L89.6682,87.41535 Z M132.4842,109.73135 C130.8467,109.72515 129.2032,109.72975 127.5682,109.73725 L127.41781,109.73725 L127.41781,119.97325 L128.77911,119.97125 C131.45911,119.97125 134.18001,119.98605 137.09751,120.01425 L137.09951,120.01425 L137.2519,120.01625 L137.25185,119.86195 C137.25185,117.97885 137.2524,116.09535 137.24985,114.21155 L137.24985,114.06311 L137.09946,114.06111 C135.61196,114.04798 134.12336,114.03869 132.63466,114.03181 L132.63466,109.73101 L132.48427,109.73101 L132.4842,109.73135 Z M121.4722,109.80752 L121.31791,109.81142 C119.67171,109.8408 118.03311,109.87564 116.40191,109.91689 L116.25543,109.91889 L116.25343,120.07089 L116.40773,120.06889 C118.04523,120.04329 119.68303,120.02339 121.32183,120.00839 L121.47222,120.00639 L121.47222,109.80739 L121.4722,109.80752 Z M142.75113,109.84463 L142.7532,120.09263 L142.90164,120.09463 C146.16104,120.15093 149.36524,120.22463 152.42894,120.31338 L152.58519,120.31738 L152.58319,114.33888 L152.43671,114.33488 C150.94671,114.29618 149.45661,114.25938 147.96601,114.22746 L147.96601,109.96766 L147.81953,109.96176 L147.81953,109.96376 C146.19833,109.91938 144.56233,109.88103 142.90543,109.84853 L142.75113,109.84463 L142.75113,109.84463 Z M109.62827,110.13564 L109.44851,110.14155 C107.91351,110.19968 106.38541,110.26093 104.87041,110.32905 L104.7376,110.33495 L104.53447,113.00485 C104.49947,113.005475 104.46397,113.00685 104.429,113.00685 L104.2083,110.36035 L104.06377,110.36815 C102.52757,110.44003 100.99997,110.51487 99.48567,110.59862 L99.31965,110.60842 L100.72785,120.45802 L100.86457,120.45402 C103.34457,120.37092 105.77987,120.29792 108.10677,120.23918 L108.23567,120.23718 L108.25327,120.11024 C108.53765,118.04334 108.82179,115.98004 109.10679,113.91684 L109.62827,110.13564 L109.62827,110.13564 Z M158.08319,110.33487 L158.0832,110.49307 C158.0832,113.77807 158.0839,117.06477 158.0852,120.34857 L158.0852,120.49504 L158.23169,120.49904 C161.75289,120.62467 165.32929,120.77224 168.85869,120.93848 L169.01689,120.94648 L169.01689,120.78827 C169.01689,118.92017 169.01589,117.05097 169.01289,115.18277 L169.01289,115.03824 L168.86836,115.03224 C167.01086,114.95164 165.15486,114.87568 163.29606,114.80568 L163.29606,113.29788 C164.72606,113.34975 166.15516,113.40452 167.58516,113.4639 L167.74337,113.4698 L167.74337,110.8526 L167.60079,110.8428 C164.42199,110.64905 161.27329,110.4803 158.24139,110.3428 L158.08319,110.335 L158.08319,110.33487 Z M92.9522,110.98331 L92.82525,110.99311 C89.30775,111.22186 85.76545,111.47873 82.29825,111.75873 L82.04434,111.77826 L82.21817,112.04388 C82.25629,112.10388 82.29411,112.16388 82.33536,112.21576 C83.06661,113.14951 84.45416,113.80626 86.46036,114.16696 C87.36786,114.32196 87.68756,114.41852 87.79626,114.47165 C87.91188,114.52915 87.96423,114.61899 87.96423,114.76462 C87.96423,114.90087 87.96543,115.31649 87.00915,115.35837 C85.64225,115.42087 83.87215,115.28317 81.72395,114.94821 L81.55793,114.92281 L81.33527,120.61031 L82.27277,120.87203 C82.81839,121.02703 83.59927,121.17297 84.59117,121.30172 C85.33742,121.40042 86.07167,121.45015 86.77477,121.45015 C87.00789,121.45015 87.23805,121.44415 87.46618,121.43455 C89.37868,121.34085 90.83278,120.71658 91.78648,119.57905 C92.73773,118.44905 93.21948,116.59635 93.22008,114.07315 C93.22128,112.86315 93.14742,111.88495 92.99742,111.16495 L92.9525,110.98331 L92.9522,110.98331 Z M183.9541,112.08291 L183.9582,112.25088 C183.997,114.63838 184.18554,116.53878 184.51679,117.90128 C184.89554,119.45938 185.52769,120.61348 186.39769,121.33098 C187.26519,122.04723 188.51079,122.46508 190.10079,122.57318 C190.41829,122.59438 190.73954,122.60438 191.05391,122.60438 C192.30201,122.60438 193.54461,122.43118 194.74341,122.0868 L194.85278,122.0556 L194.78438,116.3544 L194.6379,116.3524 C193.5385,116.3399 192.4387,116.3299 191.3449,116.3212 L191.3449,116.3192 C190.71802,116.2792 190.262,116.15147 189.9914,115.93834 C189.72578,115.72584 189.52711,115.30038 189.39961,114.67664 C189.31401,114.25476 189.25711,113.59774 189.22773,112.71964 L189.22173,112.58878 L189.09087,112.57315 C187.46777,112.4094 185.81207,112.25417 184.12207,112.09854 L183.9541,112.08291 L183.9541,112.08291 Z M75.5842,112.33096 L75.41818,112.34659 C73.76008,112.49659 72.12188,112.65261 70.50998,112.80948 L70.37326,112.8212 L70.37526,112.8232 L70.37136,121.9912 L70.53347,121.9812 C72.17037,121.87495 73.80347,121.76995 75.43967,121.6687 L75.58225,121.6587 L75.58425,112.3306 L75.5842,112.33096 Z M64.5222,113.42276 L64.35423,113.44229 C62.68923,113.61979 61.04973,113.80081 59.44603,113.98331 L59.31322,113.99894 L59.31322,115.45594 C59.31322,116.01657 59.22252,116.42016 59.04564,116.65514 C58.87689,116.87889 58.57189,117.00803 58.13939,117.03991 C57.71751,117.06931 57.41087,116.98881 57.239,116.79381 C57.0615,116.59006 56.97142,116.20342 56.97142,115.64341 L56.97142,114.27041 L56.80442,114.28041 C55.12942,114.47853 53.49312,114.67673 51.89622,114.87611 L51.76536,114.89371 L51.76536,115.71402 C51.76536,118.66842 52.28255,120.72422 53.30446,121.82922 C54.19446,122.79485 55.54346,123.28432 57.31036,123.28432 C57.57974,123.28432 57.86083,123.27422 58.1502,123.25112 C60.3333,123.08737 61.9604,122.3519 62.9842,121.06752 C64.0036,119.79132 64.5213,117.65342 64.5213,114.71402 L64.5233,113.41322 L64.5222,113.42276 Z M200.4422,113.84464 L200.4422,122.92274 L200.58088,122.93274 C202.21708,123.05899 203.85338,123.1875 205.48708,123.31751 L205.64919,123.33121 L205.64919,114.51481 L205.51833,114.49721 C203.76583,114.26158 202.16143,114.05501 200.61213,113.86439 L200.4422,113.84486 L200.4422,113.84464 Z M46.12223,115.63373 L45.93665,115.65914 C44.21605,115.88976 42.54545,116.11976 40.93865,116.34664 L40.82537,116.36424 L40.80974,116.47752 C40.75786,116.86252 40.69677,117.184 40.62615,117.4365 C40.4174,118.16775 39.98662,118.5528 39.30975,118.6103 C38.65725,118.6647 38.22215,118.35671 38.01095,117.66108 C37.95032,117.46108 37.89642,117.22045 37.85079,116.94233 L37.82735,116.79585 L37.68087,116.81735 C35.95087,117.07048 34.29977,117.31891 32.73167,117.55954 L32.58714,117.58104 L32.60472,117.72557 C32.8466,119.84117 33.33683,121.47817 34.06372,122.58687 C35.0456,124.08437 36.55872,124.84467 38.56372,124.84467 C38.81184,124.84467 39.07145,124.83207 39.3352,124.80947 C41.7202,124.60134 43.4823,123.55937 44.5754,121.71377 C45.39415,120.33187 45.9085,118.34797 46.1066,115.81927 L46.12223,115.63373 L46.12223,115.63373 Z M214.0522,115.72554 L214.0522,115.90132 C214.0542,118.56382 214.0542,121.22582 214.0542,123.88762 L214.0542,124.02629 L214.38233,124.05359 C215.95173,124.18859 217.52203,124.32296 219.09323,124.45984 L219.25729,124.47544 L219.25729,116.55554 L219.13033,116.53404 C217.42783,116.25341 215.82353,115.99646 214.22603,115.75083 L214.0522,115.72543 L214.0522,115.72554 Z M230.7382,118.65524 L230.7382,118.84079 C230.7382,121.01769 230.7389,123.19259 230.7402,125.37009 L230.7402,125.50681 L230.87887,125.52051 C232.51137,125.66927 234.14287,125.81981 235.77537,125.97169 L235.93943,125.98729 L235.93943,119.74899 L235.82224,119.72169 C234.21604,119.36794 232.56674,119.02177 230.91994,118.69239 L230.7383,118.65529 L230.7382,118.65524 Z M22.8582,119.16891 L22.68047,119.20011 C20.85607,119.51636 19.20767,119.80871 17.78207,120.07121 L17.65902,120.09461 L17.65902,126.36801 L17.82308,126.35241 C20.98928,126.05866 24.15558,125.76741 27.32308,125.47741 L27.46175,125.46371 L27.46175,119.20391 L27.09847,119.23711 C25.68657,119.36399 24.27197,119.49125 22.85827,119.62188 L22.85827,119.16875 L22.8582,119.16891 Z M127.8382,130.19591 L127.8382,130.19791 C121.2313,130.18541 114.6242,130.25741 108.0182,130.38932 C108.1169,131.45992 108.50117,135.52562 109.1705,141.62532 C121.9045,142.01032 134.6455,142.01095 147.3815,141.62532 C148.04713,135.55092 148.4306,131.49732 148.5319,130.40232 C141.6344,130.25919 134.7369,130.18278 127.8389,130.19528 L127.8382,130.19591 Z M106.6822,130.41075 C94.0522,130.67887 81.4242,131.19152 68.8052,131.89905 C69.4877,133.73465 70.4414,136.25755 71.6646,139.36195 C83.6976,140.44815 95.7556,141.18815 107.8226,141.57875 C107.1426,135.36435 106.7638,131.29975 106.682,130.41075 L106.6822,130.41075 Z M149.8662,130.42835 C149.7812,131.35397 149.39987,135.40695 148.7236,141.58035 C160.6546,141.19409 172.5766,140.46695 184.4776,139.40265 C185.702,136.29145 186.6604,133.76735 187.3448,131.92605 C174.8568,131.21918 162.3628,130.70485 149.8658,130.42805 L149.8662,130.42835 Z M67.4152,131.97715 C64.1464,132.16526 60.8761,132.36753 57.6086,132.58066 C58.46922,134.44256 59.351,136.32226 60.2785,138.23106 C63.5785,138.58794 66.879,138.92355 70.1828,139.23106 C68.9884,136.18296 68.064,133.72776 67.4152,131.97716 L67.4152,131.97715 Z M188.7352,132.00645 C188.08645,133.76335 187.1574,136.22015 185.9618,139.27015 C189.4149,138.95453 192.8639,138.6068 196.3118,138.23305 C197.23055,136.34425 198.1045,134.48365 198.9563,132.63925 C195.5494,132.4155 192.1443,132.20268 188.7353,132.00643 L188.7352,132.00645 Z M63.0752,143.83645 C71.5202,160.38645 82.5572,178.47645 96.9612,197.36645 C86.0272,176.94645 77.6392,157.68645 72.4282,144.83645 C69.3082,144.5527 66.1909,144.21372 63.0747,143.83065 L63.0752,143.83645 Z M193.5353,143.83835 C190.2721,144.24157 187.0064,144.5915 183.7383,144.88335 C178.3627,158.13835 169.6153,178.18935 158.1833,199.29535 C173.3133,179.70335 184.8023,160.95235 193.5353,143.83835 L193.5353,143.83835 Z M73.9252,144.97715 C79.7533,159.30215 89.4052,181.26315 102.0462,203.88915 C104.63,207.13165 107.3128,210.39825 110.1009,213.68015 C113.0828,214.23702 116.0865,214.65796 119.1009,214.93795 C118.60402,212.61415 118.11988,210.26985 117.6536,207.90675 L119.0618,208.14894 C119.52118,210.46954 119.99758,212.77384 120.4876,215.05324 C125.6832,215.46137 130.9026,215.4516 136.0986,215.02784 C136.5786,212.78224 137.04852,210.51404 137.5029,208.23094 L138.9072,207.98875 C138.44782,210.31435 137.97212,212.62175 137.4834,214.90865 C140.5353,214.61615 143.576,214.1749 146.5947,213.59615 C148.8353,210.95615 151.0113,208.32775 153.1181,205.71335 C166.2521,182.46935 176.2581,159.72935 182.2451,145.01835 C170.9081,145.98522 159.5501,146.36175 148.1831,146.53985 C147.42497,153.15485 146.4136,161.36285 145.1499,170.36985 L143.7515,170.76633 C145.039,161.62193 146.0695,153.27733 146.8433,146.55933 C140.6683,146.64813 134.4913,146.68496 128.3143,146.73121 C122.1212,146.68491 115.9283,146.64811 109.7383,146.55933 C110.5083,153.26373 111.5353,161.58833 112.8203,170.71133 L111.4199,170.31484 C110.1618,161.32734 109.1526,153.13884 108.3945,146.53784 C96.8935,146.35846 85.3975,145.96917 73.9252,144.97715 L73.9252,144.97715 Z M141.6422,219.32315 C139.8884,219.56753 138.1382,219.77011 136.3863,219.91886 C135.83943,222.33006 135.2737,224.69596 134.6949,227.01846 C137.0755,224.44466 139.3897,221.87936 141.6422,219.32315 L141.6422,219.32315 Z M115.0272,219.37784 C117.2453,221.89475 119.5266,224.42155 121.871,226.95405 C121.29912,224.66215 120.7398,222.32505 120.2011,219.94815 C118.4774,219.8044 116.7535,219.61159 115.0273,219.37784 L115.0272,219.37784 Z M134.9962,220.0341 C130.5256,220.3516 126.0606,220.35738 121.5902,220.0536 C122.28457,223.0967 123.0041,226.0764 123.7504,228.9677 C125.2498,230.5658 126.7642,232.1647 128.3129,233.7685 C129.841,232.1873 131.3322,230.6097 132.8109,229.0341 C133.5659,226.1153 134.2946,223.1079 134.9965,220.0341 L134.9962,220.0341 Z" id="Shape" fill="#E8CE79" fill-rule="nonzero" transform="translate(126.799225, 131.446270) scale(-1, 1) rotate(-180.000000) translate(-126.799225, -131.446270) "></path>
                    <path d="M39.35,48.075649 C38.60312,48.133779 38.1138,48.564239 37.8812,49.368649 C37.64932,50.171149 37.53346,51.466249 37.53159,53.245649 C37.53159,55.025049 37.64862,56.297149 37.87925,57.064049 C38.11113,57.829049 38.59886,58.179949 39.33825,58.118749 C40.07763,58.055649 40.55925,57.628049 40.78555,56.835549 C41.01055,56.043049 41.12344,54.745149 41.12344,52.935149 C41.12464,51.128249 41.01727,49.851349 40.79727,49.107049 C40.57915,48.360799 40.09625,48.015849 39.34997,48.075849 L39.35,48.075649 Z M128.286,87.540649 C128.266,87.586249 128.2476,87.624049 128.2333,87.657829 C128.0583,88.049079 127.88932,88.444319 127.71182,88.835529 C127.53994,89.218029 127.35018,89.594509 127.18643,89.982029 C126.5858,91.375129 125.93453,92.742229 125.18643,94.064029 C124.8058,94.736529 124.43401,95.417229 124.06343,96.097229 C123.31468,97.462829 122.58613,98.841929 121.94233,100.261329 C121.28858,101.703829 120.72213,103.179629 120.32903,104.718329 C120.10903,105.593959 119.94614,106.479629 119.86614,107.376529 C119.79804,108.124029 119.78064,108.871329 119.83684,109.622629 C119.88124,110.228879 119.95856,110.829029 120.08293,111.423429 C120.27668,112.355929 120.55629,113.264629 120.88567,114.157829 C121.26254,115.177229 121.70106,116.171129 122.14547,117.161729 C122.85422,118.744829 123.50127,120.354429 124.02437,122.011329 C124.21312,122.611959 124.41843,123.206929 124.68843,123.776929 C124.78403,123.975049 124.86046,124.183099 124.94234,124.384349 C125.75484,126.413149 126.28084,128.513149 126.53024,130.683149 C126.54404,130.808149 126.56754,130.930969 126.58684,131.065969 C127.64994,131.175339 128.69834,131.174639 129.74894,131.110869 C129.85831,131.102869 129.96948,131.114869 130.07511,131.058169 C130.08511,131.015069 130.09751,130.974469 130.10441,130.935129 C130.13881,130.701379 130.17031,130.465829 130.20597,130.233959 C130.43472,128.723959 130.80581,127.249459 131.31147,125.808159 C131.48709,125.297539 131.69647,124.801259 131.87397,124.292559 C132.26334,123.161959 132.70748,122.050859 133.18057,120.952759 C133.69807,119.755859 134.22287,118.561659 134.73717,117.362959 C135.28654,116.077359 135.79697,114.777859 136.20197,113.439159 C136.63072,112.033559 136.93057,110.604359 137.01057,109.130559 C137.06557,108.105559 136.99347,107.095059 136.81721,106.087559 C136.60033,104.847559 136.25877,103.640659 135.82502,102.462559 C135.31252,101.069459 134.68712,99.727759 133.98712,98.421559 C132.80902,96.225959 131.64612,94.019259 130.50862,91.802459 C129.8155,90.453659 129.12622,89.104459 128.43242,87.757559 C128.39622,87.687559 128.37652,87.602019 128.28594,87.540769 L128.286,87.540649 Z M146.474,112.696649 C146.00392,112.704649 145.53353,112.741449 145.0638,112.807969 C144.0226,112.952969 143.0243,113.238759 142.0599,113.655629 C140.683,114.250009 139.4724,115.090429 138.388,116.118529 C137.263,117.185429 136.2961,118.383429 135.4505,119.679129 C133.2236,123.099729 131.7593,126.814929 131.2025,130.870129 C131.1975,130.916329 131.20321,130.964529 131.2045,131.010759 C131.65512,131.036359 133.5406,130.707709 133.9193,130.543959 C133.9243,130.537959 133.9317,130.531259 133.933,130.524459 C133.9536,130.460059 133.9735,130.395479 133.9936,130.331099 C134.23797,129.480479 134.62555,128.699499 135.1362,127.977599 C135.7512,127.110099 136.504,126.376499 137.3784,125.778399 C139.0465,124.634599 140.8857,123.928599 142.9038,123.719799 C143.68943,123.639799 144.4697,123.668299 145.2397,123.838949 C146.2491,124.060819 147.1418,124.510819 147.8862,125.229549 C148.48557,125.807049 148.9378,126.475049 149.1616,127.288149 C149.43785,128.300649 149.52722,129.321149 149.39597,130.362349 C149.28347,131.272979 148.99379,132.117149 148.46628,132.874049 C148.44758,132.897849 148.43738,132.930249 148.41548,132.981469 C148.47488,132.968969 148.51488,132.964769 148.55611,132.954169 C149.32986,132.751039 150.08121,132.481669 150.80811,132.141669 C152.02431,131.571669 153.11451,130.823269 154.04641,129.854569 C155.35641,128.493969 156.22451,126.889369 156.70261,125.067469 C156.84449,124.529349 156.94277,123.983069 156.95652,123.424869 C156.98402,122.381069 156.84886,121.357169 156.56199,120.356469 L156.56399,120.356469 C155.96837,118.281469 154.89659,116.500869 153.30029,115.043969 C152.55404,114.362719 151.71929,113.815769 150.77489,113.448269 C149.84426,113.084519 148.87989,112.857489 147.88429,112.756859 C147.41304,112.708059 146.94422,112.687959 146.47409,112.696359 L146.474,112.696649 Z M109.96,112.749349 C108.99589,112.763149 108.0408,112.901299 107.0967,113.149739 C105.7061,113.519119 104.4961,114.195339 103.4405,115.165339 C102.2586,116.256539 101.3665,117.551039 100.7315,119.026639 C100.14588,120.389139 99.83806,121.812539 99.84869,123.300039 C99.84969,123.535669 99.86099,123.772699 99.88969,124.007069 C99.97349,124.650819 100.12696,125.278769 100.33696,125.893769 C101.03571,127.944369 102.22196,129.645969 103.94636,130.964069 C105.05576,131.811569 106.29326,132.413369 107.61826,132.837069 C107.83263,132.903269 108.04888,132.964099 108.32138,133.044099 C108.26578,132.952199 108.24688,132.915739 108.22368,132.881989 C108.01118,132.567619 107.83516,132.231759 107.69829,131.876089 C107.43891,131.201719 107.31274,130.502189 107.29399,129.778489 C107.27089,128.886609 107.37729,128.015789 107.65727,127.165189 C107.76602,126.835809 107.89844,126.519719 108.09282,126.231589 C108.47469,125.665969 108.93837,125.182689 109.49712,124.790189 C110.36774,124.178939 111.34762,123.872759 112.39942,123.792139 C113.12379,123.735839 113.84532,123.777339 114.56352,123.905419 C115.56227,124.082919 116.52392,124.389009 117.44832,124.807759 C118.65642,125.354019 119.75272,126.066259 120.68272,127.020659 C121.61085,127.971909 122.29792,129.064659 122.68862,130.339059 C122.70922,130.403459 122.73382,130.463349 122.75702,130.524599 C122.79762,130.538399 122.82932,130.550999 122.86054,130.559799 C123.20554,130.636699 123.54882,130.725269 123.89574,130.790269 C124.34262,130.872169 124.79215,130.935029 125.24344,131.003159 C125.31154,131.013159 125.39055,131.040759 125.46805,130.973859 C125.45805,130.871359 125.45315,130.762919 125.43875,130.653549 C125.39685,130.354799 125.35345,130.053779 125.30594,129.753159 C125.18656,128.954409 125.02836,128.160159 124.81961,127.380159 C124.17399,124.953259 123.18191,122.677759 121.87621,120.538359 C120.95371,119.027159 119.89181,117.627959 118.62621,116.387959 C117.94496,115.718589 117.21041,115.115359 116.40351,114.604759 C114.73041,113.539159 112.90631,112.918559 110.92691,112.776659 C110.60316,112.753259 110.28148,112.744759 109.96012,112.749359 L109.96,112.749349 Z M114.0518,126.985349 C114.37618,128.986549 114.71399,131.002449 115.0596,133.022449 L116.2959,132.112289 C116.00965,130.432289 115.72793,129.001789 115.45606,127.332989 L114.05176,126.985329 L114.0518,126.985349 Z M142.5538,127.036109 L141.1514,127.381849 C140.89203,128.959949 140.62773,130.297649 140.35648,131.885749 L141.59478,132.795909 C141.92416,130.867809 142.24502,128.944909 142.55377,127.036109 L142.5538,127.036109 Z M122.8648,131.491249 C122.8492,131.505049 122.8332,131.512649 122.8257,131.526449 C122.52258,132.021449 122.32672,132.555249 122.28859,133.137749 C122.23609,133.904629 122.4814,134.579349 122.95265,135.176849 C123.06203,135.311849 123.18945,135.403879 123.35695,135.461999 C124.86635,135.995129 126.41795,136.304739 128.02295,136.342859 C129.28485,136.366659 130.52515,136.233559 131.74955,135.922939 C132.3108,135.781059 132.86365,135.602699 133.39795,135.370199 C133.5092,135.322099 133.59841,135.256849 133.67529,135.161219 C133.90591,134.856849 134.09404,134.530669 134.20654,134.163169 C134.48841,133.260049 134.33623,132.401569 133.91748,131.575269 C133.91048,131.561569 133.89618,131.553069 133.86868,131.520569 C130.19058,132.485569 126.52478,132.495639 122.86468,131.491269 L122.8648,131.491249 Z M140.1458,135.649449 C140.1388,135.668249 140.1283,135.686449 140.1302,135.698249 C140.1322,135.757649 140.1418,135.817859 140.1536,135.875979 C140.2355,136.326609 140.26048,136.779109 140.2317,137.235379 C140.2129,137.545999 140.1537,137.851859 140.04615,138.147489 C139.81553,138.770609 139.40279,139.250389 138.86845,139.625989 C138.24845,140.061619 137.56125,140.279039 136.79815,140.186539 C135.9369,140.084039 135.23015,139.701069 134.70635,139.002939 C134.54697,138.794189 134.41854,138.566609 134.30791,138.329109 C134.08916,137.859729 133.96018,137.365279 133.86455,136.858409 C133.85075,136.776509 133.85555,136.689189 133.79035,136.612309 C133.75285,136.624809 133.71255,136.631809 133.67317,136.645509 C132.88129,136.932379 132.06677,137.140269 131.23177,137.264649 C131.16867,137.273649 131.10732,137.300549 131.04232,137.317349 C131.04232,137.366749 131.04032,137.400049 131.04232,137.432579 C131.07172,137.664459 131.09762,137.901339 131.12822,138.135709 C131.22012,138.854459 131.36846,139.559809 131.58721,140.252909 C131.82596,141.012909 132.14643,141.732109 132.59891,142.389609 C133.17953,143.228359 133.92291,143.868709 134.87041,144.256809 C135.55354,144.536809 136.27541,144.657989 137.01101,144.676739 C137.39851,144.689839 137.78491,144.663339 138.17121,144.624039 C138.85434,144.555939 139.48711,144.341539 140.05401,143.952169 C140.93651,143.345919 141.50741,142.515569 141.79621,141.489269 C141.90684,141.099889 141.98043,140.702939 142.02668,140.299769 C142.12538,139.394769 142.01768,138.518269 141.63801,137.684569 C141.29301,136.923319 140.77903,136.277969 140.21031,135.676769 C140.19341,135.659869 140.16651,135.658169 140.14581,135.649369 L140.1458,135.649449 Z M116.5718,135.776409 C116.3893,135.888899 116.25704,136.038509 116.12454,136.188509 C115.75704,136.609139 115.42477,137.050229 115.16165,137.544009 C114.7854,138.250889 114.60024,139.002309 114.59524,139.797909 C114.59024,140.266029 114.65734,140.722519 114.74173,141.178809 C114.92985,142.184409 115.40876,143.024209 116.16753,143.704209 C116.7169,144.196079 117.33783,144.557329 118.06593,144.704209 C118.32031,144.757309 118.58258,144.785209 118.84132,144.807719 C119.5257,144.867119 120.20472,144.850019 120.87842,144.710019 C122.21342,144.433139 123.25502,143.715569 124.02882,142.598719 C124.41945,142.031849 124.7114,141.418119 124.93703,140.772519 C125.30765,139.706919 125.49609,138.607419 125.60109,137.489319 C125.60609,137.432419 125.60109,137.372519 125.60109,137.303769 C125.13922,137.211869 124.68593,137.132049 124.23779,137.026429 C123.79029,136.922049 123.34904,136.787519 122.89399,136.663139 C122.87029,136.779389 122.84829,136.883769 122.82959,136.991269 C122.74829,137.423139 122.64045,137.846819 122.47607,138.254969 C122.30107,138.688719 122.07818,139.095669 121.74756,139.428769 C120.97193,140.208769 120.03336,140.508069 118.95456,140.286189 C118.13393,140.118689 117.50216,139.645879 117.00336,138.981489 C116.75274,138.645239 116.59563,138.265869 116.51313,137.856489 C116.41873,137.383369 116.42683,136.904149 116.47993,136.422889 C116.50183,136.206009 116.53923,135.993279 116.57173,135.776409 L116.5718,135.776409 Z M129.9368,137.356509 C129.71117,137.372109 129.50235,137.387709 129.29422,137.401409 C129.07359,137.415209 128.85484,137.429009 128.63797,137.434609 C128.4261,137.440609 128.21641,137.437609 128.00516,137.432609 C127.78578,137.423609 127.56828,137.405209 127.34891,137.403309 C127.13953,137.402309 126.93563,137.335609 126.72,137.366209 C126.711,137.403709 126.6945,137.433209 126.6927,137.463909 C126.6327,138.049529 126.57309,138.640009 126.51496,139.225609 C126.49626,139.426859 126.48356,139.625999 126.46416,139.829129 C126.44476,140.030379 126.42526,140.230689 126.39776,140.430689 C126.31396,141.016319 126.09486,141.550889 125.77861,142.045889 C125.59111,142.346509 125.39072,142.638069 125.19072,142.928699 C124.7726,143.533069 124.41502,144.169499 124.14192,144.854499 C124.03254,145.125749 123.91481,145.399499 123.79231,145.666999 C123.55231,146.200119 123.24457,146.690199 122.84895,147.122099 C122.50645,147.494599 122.15879,147.860139 121.81375,148.229499 C121.78185,148.265099 121.72185,148.286599 121.74925,148.360359 C122.46987,148.469729 123.18685,148.435459 123.89375,148.237309 C124.49312,148.069809 125.03955,147.799029 125.49145,147.358409 C125.50835,147.341509 125.52745,147.323309 125.54805,147.309609 C125.69305,147.205229 125.86312,147.286309 125.87812,147.461949 C125.88312,147.536949 125.87726,147.613589 125.87212,147.690469 C125.84272,148.349839 125.90012,148.999769 126.07133,149.641669 C126.22946,150.227289 126.47227,150.785769 126.75102,151.323269 C127.2379,152.257639 127.73649,153.183569 128.23152,154.112369 C128.24272,154.131069 128.26182,154.145469 128.28622,154.172969 C128.31872,154.121669 128.34582,154.082569 128.37022,154.038199 C128.55772,153.670699 128.74452,153.303439 128.93077,152.934699 C129.30452,152.200319 129.68647,151.468099 130.01087,150.708099 C130.12024,150.453719 130.22884,150.195049 130.30384,149.928799 C130.51884,149.165669 130.66173,148.388199 130.6261,147.586999 C130.6241,147.544499 130.6231,147.503299 130.6281,147.461999 C130.6371,147.369499 130.6858,147.303799 130.77264,147.272549 C130.85134,147.243749 130.92349,147.268549 130.98162,147.325249 C131.01412,147.354049 131.04072,147.387249 131.06752,147.420949 C131.26564,147.663449 131.514,147.852199 131.79213,147.999069 C132.079,148.147199 132.37877,148.250559 132.69252,148.317429 C133.33314,148.455559 133.97742,148.466419 134.62802,148.417029 C134.64182,148.417029 134.65322,148.404529 134.68072,148.385829 C134.66012,148.362029 134.64082,148.334229 134.62012,148.315529 C134.29575,148.042399 134.02762,147.718179 133.792,147.366309 L133.794,147.366309 C133.36025,146.724429 132.98314,146.047709 132.6944,145.323309 C132.55628,144.973309 132.42315,144.617839 132.28815,144.264709 C132.10753,143.789709 131.87792,143.341969 131.57917,142.930709 C131.43604,142.732589 131.29503,142.531489 131.16315,142.325239 C130.99753,142.070869 130.83534,141.814849 130.68659,141.549849 C130.51409,141.242349 130.36807,140.917349 130.30182,140.565479 C130.23182,140.195479 130.16932,139.820709 130.11432,139.446379 C130.04742,138.971999 130.02142,138.490829 130.01081,138.010779 C130.00481,137.793909 129.97411,137.580229 129.93661,137.356479 L129.9368,137.356509 Z" id="Shape" fill="#521E78" fill-rule="nonzero" transform="translate(97.245802, 101.121074) scale(-1, 1) rotate(-180.000000) translate(-97.245802, -101.121074) "></path>
                </g>
            </g>
        </g>
    </g>
</svg>