<?xml version="1.0" encoding="UTF-8"?>
<svg width="75px" height="68px" viewBox="0 0 75 68" version="1.1" xmlns="http://www.w3.org/2000/svg" xmlns:xlink="http://www.w3.org/1999/xlink">
    <!-- Generator: Sketch 52.2 (67145) - http://www.bohemiancoding.com/sketch -->
    <title>Shape</title>
    <desc>Created with Sketch.</desc>
    <g id="Symbols" stroke="none" stroke-width="1" fill="none" fill-rule="evenodd">
        <g id="Wide-Nav" transform="translate(-277.000000, 0.000000)" fill="#FFFFFF" fill-rule="nonzero">
            <g id="Group">
                <g id="iconmonstr-trophy-13" transform="translate(277.000000, 0.000000)">
                    <path d="M59,0 C59,30.5622941 42.9902857,40.6946471 41.4251429,53 L32.6094286,53 C31.0442857,40.6946471 15,30.5622941 15,0 L59,0 Z M37,40 C30.92313,29.9719533 28.5097814,17.1385144 28.4743383,6 L23,6 C23.6605293,20.2976567 29.4119678,31.6330408 37,40 Z M41.990625,56 L33.034375,56 C32.403125,59.561 31.065625,63.857 25,63.857 L25,68 L50,68 L50,63.857 C43.753125,63.857 42.590625,59.561 41.990625,56 Z M64,50.2121212 C59.606546,48.2909091 55.8241643,49.6363636 53.4895543,51.1 C55.8241643,49.6333333 58.512883,46.6636364 58.4878134,42 C50.3683844,45.1454545 51.295961,49.5636364 49.8231198,52.1363636 C48.8360028,53.8666667 46.6674791,52.9666667 46.6674791,52.9666667 L46,54.0333333 C47.1438022,54.6181818 49.099234,55 51.3774373,55 C55.4731894,55 60.6187326,53.7606061 64,50.2121212 Z M72,38.1981943 C67.6392322,38.4901118 65.3168551,41.3912296 64.1083355,43.5038693 C65.3168551,41.3912296 66.0457534,37.6595013 63.9505653,34 C58.8703655,39.8052451 61.5777018,42.9019776 61.5461478,45.5292347 C61.5335262,46.8142734 60,46.7841788 60,46.7841788 L60.0220878,48 C61.0128846,47.8766122 69.9742309,45.8422184 72,38.1981943 Z M74.9926952,26.7432369 C71.4026905,28.0347481 70.2101099,31.2089552 69.7257199,33.3372201 C70.2101099,31.2089552 69.8514161,27.6891325 67.1658105,25 C64.3606404,31.2695896 67.4172028,33.3220616 68.0548808,35.6201026 C68.3675883,36.7448694 67.0585089,37.4573228 67.0585089,37.4573228 L67.9475793,38 C68.1345906,37.9120802 75.2594163,33.9617537 74.9926952,26.7432369 Z M74.519793,14 C71.6817764,16.1249668 71.3234886,19.3858016 71.4586323,21.4501462 C71.3266315,19.3889923 70.2171965,16.220686 67.1340357,14.488168 C66.3043166,20.9268811 69.5509069,21.9829832 70.7231994,23.9005584 C71.2952028,24.8386068 70.7954856,26 70.7954856,26 L71.6880622,25.9393778 C71.6880622,25.9393778 71.7697769,25.5341664 72.2192081,24.5291146 C73.1337849,22.4743419 76.1635168,20.2727998 74.519793,14 Z M68.4728594,6 C68.4728594,6 67.5226295,9.1813773 68.3162281,11.5997414 C69.1655179,14.1797608 71.3548755,16 71.3548755,16 C71.3548755,16 72.538312,13.1774976 71.6994644,10.3970255 C70.9267499,7.83640478 68.4728594,6 68.4728594,6 Z M29,54.030529 L28.3325209,52.9641109 C28.3325209,52.9641109 26.1671309,53.8639012 25.1768802,52.1340014 C23.704039,49.5618737 24.6316156,45.1447215 16.5121866,42 C16.487117,46.6625495 19.1758357,49.634584 21.5104457,51.0978793 C19.1758357,49.6315544 15.393454,48.289443 11,50.2102074 C14.3781337,53.7578653 19.5268106,55 23.6225627,55 C25.900766,54.9969704 27.8530641,54.6152412 29,54.030529 Z M14.9779122,48 L15,46.7841788 C15,46.7841788 13.4664738,46.8142734 13.4538522,45.5292347 C13.4254536,42.9019776 16.1296345,39.8082545 11.0494347,34 C8.95424665,37.6595013 9.68314489,41.394239 10.8916645,43.5038693 C9.68314489,41.3912296 7.35761241,38.4901118 3,38.1981943 C5.02576913,45.8452279 13.9871154,47.8796217 14.9779122,48 Z M7.05245683,38 L7.94151068,37.4573228 C7.94151068,37.4573228 6.63245553,36.7418377 6.94515723,35.6201026 C7.58282344,33.3220616 10.6393293,31.2695896 7.83421108,25 C5.1486553,27.6891325 4.78690236,31.2089552 5.27434912,33.3372201 C4.78996806,31.2089552 3.60047532,28.0347481 0.007471467,26.7432369 C-0.262310392,33.9617537 6.86238325,37.9120802 7.05245683,38 Z M2.78311084,24.5295056 C3.23241352,25.5342903 3.31410492,25.9393939 3.31410492,25.9393939 L4.20642632,26 C4.20642632,26 3.70685201,24.8389155 4.27869178,23.9011164 C5.45064911,21.984051 8.69316913,20.9250399 7.86682925,14.4912281 C4.77826609,16.2200957 3.67229027,19.38437 3.54032724,21.4481659 C3.67229027,19.38437 3.31410492,16.1212121 0.480041875,14 C-1.16321197,20.2711324 1.86565363,22.4720893 2.78311084,24.5295056 Z M3.2991577,10.3970255 C2.46347958,13.1774976 3.64387492,16 3.64387492,16 C3.64387492,16 5.83404799,14.1797608 6.68365408,11.5997414 C7.47754829,9.1813773 6.52696443,6 6.52696443,6 C6.52696443,6 4.07215996,7.83640478 3.2991577,10.3970255 Z" id="Shape"></path>
                </g>
            </g>
        </g>
    </g>
</svg>