<?xml version="1.0" standalone="no"?>
<!DOCTYPE svg PUBLIC "-//W3C//DTD SVG 20010904//EN"
 "http://www.w3.org/TR/2001/REC-SVG-20010904/DTD/svg10.dtd">
<svg version="1.0" xmlns="http://www.w3.org/2000/svg"
 width="600.000000pt" height="600.000000pt" viewBox="0 0 600.000000 600.000000"
 preserveAspectRatio="xMidYMid meet">
<metadata>
Created by potrace 1.11, written by Peter Selinger 2001-2013
</metadata>
<g transform="translate(0.000000,600.000000) scale(0.100000,-0.100000)"
fill="#000000" stroke="none">
<path d="M1204 5528 c4 -106 8 -218 11 -248 2 -30 7 -86 10 -125 7 -87 12
-138 19 -192 4 -24 8 -61 11 -82 3 -22 16 -104 30 -183 14 -79 27 -154 29
-168 2 -14 12 -56 21 -95 9 -38 18 -79 20 -89 3 -10 14 -55 26 -100 11 -45 22
-88 24 -96 2 -8 4 -16 5 -17 2 -2 3 -6 5 -10 1 -5 4 -15 8 -23 4 -12 11 -37
22 -80 9 -39 97 -284 121 -337 8 -17 14 -34 14 -37 0 -39 302 -659 378 -776 9
-14 17 -27 17 -30 0 -3 8 -16 16 -30 9 -14 26 -43 39 -65 45 -79 58 -101 104
-180 25 -44 50 -87 56 -95 8 -13 80 -140 140 -245 127 -225 238 -501 266 -665
4 -25 9 -48 10 -52 1 -5 2 -12 3 -17 1 -6 139 -9 353 -8 l353 2 2 25 c1 14 14
70 28 125 14 55 28 108 30 117 2 10 10 32 18 50 8 18 20 49 27 68 19 52 128
276 170 350 21 36 48 85 62 110 36 64 61 107 98 170 196 329 415 736 509 950
49 111 109 260 108 270 0 3 5 16 13 29 12 24 98 270 104 300 2 9 6 23 9 31 11
30 28 89 33 116 3 15 7 31 10 36 3 5 8 21 10 36 3 15 14 63 26 107 11 44 22
91 24 105 3 14 11 57 19 95 7 39 16 88 20 110 3 22 7 47 10 55 3 13 11 67 20
140 21 165 22 173 30 260 11 119 14 173 20 383 l5 197 -1760 0 -1761 0 5 -192z
m849 -287 c9 6 18 5 21 0 4 -5 18 -6 34 -2 15 4 41 4 58 1 18 -4 37 -4 44 0 7
4 24 4 39 1 21 -6 26 -14 28 -42 1 -19 4 -104 7 -189 6 -164 13 -276 20 -325
3 -16 8 -64 11 -105 3 -41 8 -86 10 -100 2 -14 9 -61 15 -105 25 -177 45 -290
79 -440 11 -49 22 -101 25 -115 32 -152 164 -578 202 -652 8 -15 15 -31 15
-35 0 -5 9 -28 20 -52 10 -24 19 -45 19 -48 0 -16 92 -204 207 -425 8 -15 18
-30 24 -33 5 -4 9 -12 9 -18 -1 -11 -41 30 -95 94 -38 46 -140 176 -158 200
-9 13 -37 51 -61 84 -49 69 -160 237 -161 245 0 3 -14 25 -30 50 -16 25 -49
83 -74 130 -25 47 -48 87 -53 88 -4 2 -8 9 -8 16 0 7 -25 63 -55 124 -30 62
-55 118 -55 125 0 7 -4 17 -9 22 -7 8 -73 167 -77 185 0 3 -4 12 -7 20 -22 52
-110 337 -121 391 -2 13 -14 60 -25 104 -25 102 -64 310 -76 415 -3 19 -7 53
-10 75 -6 47 -14 142 -20 243 l-4 72 60 -1 c33 -1 62 1 65 4 3 2 20 1 38 -3
18 -4 40 -3 49 1z"/>
<path d="M5476 5232 c-5 -9 -11 -37 -26 -127 -15 -93 -5 -253 20 -325 35 -98
97 -195 187 -290 42 -44 61 -47 66 -9 2 8 6 20 10 27 5 6 6 12 4 12 -2 0 1 25
8 55 16 66 13 244 -4 300 -17 54 -49 120 -85 175 -37 58 -172 194 -180 182z"/>
<path d="M438 5162 c-146 -154 -192 -259 -192 -437 -1 -119 3 -151 29 -235
l17 -55 57 62 c31 34 66 74 79 90 38 48 110 205 121 263 10 54 7 240 -3 290
-3 14 -9 40 -12 58 -3 17 -12 32 -19 32 -7 0 -41 -31 -77 -68z"/>
<path d="M5918 4565 c-123 -114 -205 -307 -201 -475 1 -32 -14 -6 -21 36 -2
16 -5 30 -6 32 -2 1 -3 5 -5 10 -37 132 -163 301 -277 371 -44 26 -39 39 -43
-114 -2 -89 2 -146 19 -224 17 -77 79 -174 179 -281 104 -110 112 -125 111
-205 l0 -72 29 -1 c20 0 30 5 36 21 32 83 53 123 105 207 63 101 122 220 130
260 2 14 9 45 15 70 15 67 10 232 -9 317 -10 40 -19 76 -21 78 -2 2 -21 -12
-41 -30z"/>
<path d="M21 4528 c-28 -131 -22 -310 15 -431 12 -40 73 -157 113 -215 43 -63
87 -148 106 -201 9 -29 17 -36 44 -39 l31 -3 -6 59 c-6 69 10 111 71 177 21
22 61 66 89 97 62 67 109 151 131 234 18 63 28 267 17 322 l-7 34 -60 -44
c-119 -88 -203 -208 -251 -355 -14 -46 -28 -83 -31 -83 -3 0 -3 9 0 20 3 11 1
36 -3 57 -5 21 -10 54 -13 73 -9 68 -56 180 -97 234 -36 47 -114 126 -124 126
-7 0 -18 -28 -25 -62z"/>
<path d="M594 3685 c-16 -20 -34 -42 -40 -48 -12 -14 -83 -135 -84 -142 0 -3
-6 -20 -13 -38 -13 -29 -30 -94 -42 -157 -3 -14 -6 -58 -6 -98 0 -41 -4 -70
-10 -67 -5 4 -9 14 -9 23 0 9 -21 59 -47 111 -69 139 -174 241 -307 296 l-39
16 7 -88 c3 -49 15 -123 27 -164 21 -79 89 -227 123 -270 12 -14 28 -37 36
-50 30 -48 218 -226 293 -277 l77 -53 37 22 36 22 -25 21 c-71 59 -70 105 4
252 79 155 101 222 104 324 1 47 -2 111 -7 143 -9 58 -51 190 -74 234 l-12 24
-29 -36z"/>
<path d="M5349 3663 c-44 -103 -67 -222 -64 -328 3 -121 13 -158 84 -300 30
-60 55 -112 56 -115 1 -3 7 -18 14 -34 17 -43 4 -92 -36 -131 l-35 -34 33 -20
c39 -24 49 -26 49 -9 0 6 3 9 6 5 9 -9 138 88 221 167 76 71 183 203 183 224
0 7 4 12 9 12 13 0 78 148 101 231 24 87 37 233 22 243 -6 3 -13 2 -17 -4 -3
-5 -13 -10 -22 -10 -26 0 -124 -69 -184 -130 -64 -64 -123 -164 -156 -260
l-22 -65 1 80 c0 44 -5 107 -13 140 -7 33 -13 62 -14 65 -8 39 -59 160 -77
185 -5 6 -29 38 -54 73 -25 34 -50 62 -55 62 -5 0 -19 -21 -30 -47z"/>
<path d="M5099 2980 c-78 -83 -153 -210 -202 -340 -29 -81 -32 -246 -6 -365
11 -49 22 -106 25 -125 3 -19 6 -44 8 -55 5 -32 -14 -73 -42 -94 -29 -20 -32
-21 -61 -21 -16 0 -19 -7 -18 -49 l0 -50 31 6 c186 35 469 172 610 294 139
120 254 283 296 419 4 14 11 33 16 44 7 17 3 18 -47 13 -75 -8 -102 -14 -162
-38 -53 -21 -128 -59 -137 -70 -3 -3 -12 -10 -21 -15 -40 -22 -116 -95 -170
-162 -33 -40 -59 -71 -59 -69 0 3 7 20 15 40 14 33 26 82 39 152 5 26 7 105 5
180 -2 52 -34 175 -61 239 -38 86 -39 87 -59 66z"/>
<path d="M863 2963 c-43 -100 -54 -131 -68 -199 -31 -151 -14 -336 42 -449 18
-35 9 -27 -37 35 -64 86 -217 220 -251 220 -5 0 -9 5 -9 10 0 6 -9 10 -20 10
-11 0 -20 5 -20 10 0 6 -8 10 -18 10 -10 0 -22 3 -26 8 -4 4 -11 7 -14 8 -4 0
-25 5 -47 12 -22 6 -57 13 -77 16 -21 3 -41 6 -45 7 -43 7 -35 -29 38 -175
100 -201 289 -372 542 -491 78 -37 165 -71 202 -79 6 -2 28 -7 50 -13 103 -28
96 -29 93 23 -3 44 -5 47 -43 60 -84 28 -95 77 -54 249 28 121 34 289 13 364
-24 84 -62 169 -102 231 -54 82 -115 160 -127 160 -6 0 -15 -12 -22 -27z"/>
<path d="M1325 2284 c8 -142 64 -298 152 -422 43 -60 150 -172 166 -172 4 0 7
-4 7 -9 0 -5 -12 -4 -27 4 -69 32 -100 46 -118 50 -11 2 -36 9 -55 15 -82 25
-260 34 -360 17 -59 -9 -182 -47 -195 -59 -12 -12 71 -91 155 -148 115 -78
338 -174 455 -195 17 -3 68 -13 115 -22 90 -17 365 -24 455 -11 102 15 177 33
217 54 l28 14 -27 41 c-23 35 -30 39 -55 34 -54 -12 -96 -12 -133 1 -46 16
-72 39 -97 89 -22 43 -69 175 -63 175 2 0 -4 20 -15 45 -11 25 -19 47 -20 50
0 3 -7 21 -15 41 -8 20 -15 40 -15 44 0 4 -7 13 -15 20 -8 7 -12 16 -9 21 3 5
1 9 -5 9 -5 0 -12 8 -15 18 -6 16 -27 43 -80 102 -71 78 -189 159 -318 219
-129 59 -118 62 -113 -25z"/>
<path d="M4642 2344 c-12 -8 -22 -13 -22 -10 0 10 -150 -69 -225 -119 -84 -56
-184 -150 -223 -210 -18 -29 -91 -175 -87 -175 2 0 -5 -24 -16 -52 -11 -29
-22 -66 -25 -83 -3 -16 -8 -34 -12 -40 -4 -5 -14 -28 -21 -50 -36 -109 -125
-160 -233 -132 -42 10 -50 5 -83 -54 l-14 -27 57 -18 c31 -10 62 -19 67 -20 6
-1 24 -5 40 -8 17 -3 41 -8 55 -12 41 -9 320 -12 390 -4 102 13 214 34 275 54
6 1 24 6 40 11 46 12 190 72 243 102 79 44 185 120 230 165 l42 44 -82 27
c-110 35 -125 38 -249 42 -146 5 -291 -28 -414 -92 l-50 -26 49 44 c47 42 76
71 126 129 54 62 137 231 154 312 3 13 7 34 10 48 12 52 17 158 8 164 -5 3
-18 -2 -30 -10z"/>
<path d="M2659 1243 c-11 -3 -21 -29 -34 -86 -10 -45 -19 -86 -21 -92 -7 -35
-63 -158 -90 -202 -94 -148 -258 -238 -452 -248 -29 -2 -56 -5 -58 -8 -3 -2
-4 -24 -4 -48 1 -84 1 -104 0 -149 -1 -25 -1 -64 1 -87 l2 -43 999 0 1000 0
-2 28 c-1 15 -1 32 0 37 3 16 1 258 -2 260 -2 2 -30 6 -63 9 -86 9 -125 16
-165 28 -113 36 -216 111 -273 198 -41 63 -87 162 -87 188 0 10 -4 22 -9 27
-4 6 -14 39 -21 75 -6 36 -14 73 -16 84 -2 10 -5 20 -7 22 -3 4 -74 5 -202 3
-27 -1 -61 0 -75 1 -14 1 -33 2 -42 1 -10 0 -25 -1 -33 -1 -13 -1 -98 -1 -142
-1 -10 0 -45 1 -77 1 -32 0 -61 -2 -63 -4 -3 -3 -15 -1 -27 3 -11 4 -28 6 -37
4z"/>
</g>
</svg>
